<svg width="146" height="23" viewBox="0 0 146 23" fill="none" xmlns="http://www.w3.org/2000/svg">
<path d="M84.9684 22.2343C84.9684 22.2343 83.6423 19.4345 82.4126 16.7942C81.3155 14.4735 80.2838 12.2878 80.2391 12.1923C80.1625 12.0407 80.0819 11.7534 80.1585 11.4345C80.2231 11.2032 80.4936 10.7801 80.6907 10.5252C81.0737 10.0508 81.203 9.79107 81.2548 9.44454L86.8755 21.3645L87.5442 22.7727C88.2376 22.6369 88.919 22.4254 89.5518 22.1625C88.7985 20.5475 88.0197 18.8922 87.5442 17.8471L87.5242 17.8511C87.5242 17.8511 82.8922 8.00477 82.8076 7.82164C82.723 7.66535 82.6177 7.39066 82.723 7.05519C82.7789 6.81207 83.0574 6.40556 83.2664 6.14191C83.6423 5.65962 83.7628 5.4165 83.8074 5.06919L88.0604 14.0827L91.4389 21.2334C92.0358 20.834 92.6079 20.4038 93.1241 19.9215C92.1116 17.7595 90.7654 14.9005 90.0928 13.4726H90.088C90.088 13.4726 85.456 3.62153 85.3634 3.42656C85.2868 3.275 85.1903 2.97979 85.2709 2.68063C85.3347 2.44145 85.6219 2.00258 85.831 1.75946C86.202 1.27322 86.3225 1.01747 86.3632 0.666212L90.6849 9.83132L94.6434 18.23C96.027 16.3237 96.8569 14.0149 96.8569 11.5024C96.8569 5.15365 91.644 2.19875e-06 85.2262 2.19875e-06C78.8084 2.19875e-06 73.6074 5.15365 73.6074 11.5024C73.6074 16.0608 76.2805 19.9768 80.1585 21.8349C78.9616 19.3027 77.7272 16.6868 77.6873 16.5716C77.6107 16.4358 77.5061 16.1485 77.6107 15.8375C77.6554 15.5857 77.9458 15.1673 78.1509 14.9202C78.5379 14.4293 78.6552 14.1704 78.6911 13.827L82.9082 22.7727C83.6582 22.9282 84.4442 23 85.2262 23H85.3227C85.2142 22.7521 85.0849 22.4853 84.9684 22.2343Z" fill="white"/>
<path d="M7.55087 10.7798H9.65583C10.2838 10.7798 10.8527 10.6598 11.3283 10.4364C12.0058 10.138 12.5172 9.67074 12.909 9.01716C13.316 8.39042 13.5051 7.66501 13.5051 6.85909C13.5051 5.95766 13.2354 5.31197 12.6912 4.94492C12.3122 4.66155 11.5948 4.53446 10.583 4.53446C9.99415 4.53446 9.58322 4.5984 9.38134 4.72627C9.17547 4.83362 9.03025 5.08858 8.9337 5.41537L7.55087 10.7798ZM7.25244 11.7925L5.77307 17.5319C5.7244 17.6874 5.70445 17.8468 5.70445 17.9944C5.70445 18.1973 5.78903 18.3409 5.94223 18.4372C6.11618 18.5485 6.42977 18.5801 6.90614 18.5801H8.67596C9.52656 18.5801 10.2279 18.4372 10.7881 18.1136C11.361 17.7987 11.8206 17.2919 12.1909 16.5981C12.546 15.9042 12.7271 15.1504 12.7271 14.3887C12.7271 13.5717 12.4654 12.9576 11.9451 12.4871C11.4249 12.0277 10.6509 11.7925 9.65583 11.7925H7.25244ZM3.479 3.52568H12.4933C13.9048 3.52568 15.0092 3.84457 15.7632 4.49815C16.5213 5.13279 16.9123 5.97028 16.9123 6.98302C16.9123 8.06758 16.5213 8.96507 15.7345 9.68732C14.9565 10.4364 13.675 10.9069 11.8845 11.1508C13.2912 11.2747 14.3597 11.6773 15.1097 12.3711C15.8279 13.0452 16.2069 13.934 16.2069 14.987C16.2069 15.9247 15.9284 16.7701 15.3683 17.5074C14.9366 18.0536 14.2272 18.5249 13.2354 18.959C12.2316 19.386 11.1631 19.6055 9.99415 19.6055H0L0.233796 18.6401H1.29026C1.91505 18.6401 2.30205 18.2975 2.44727 17.6597L5.57119 5.56298C5.6079 5.41537 5.61987 5.26855 5.61987 5.13279C5.61987 4.94492 5.55124 4.79337 5.40203 4.66155C5.23686 4.54236 4.94641 4.49815 4.55542 4.49815H3.24122L3.479 3.52568Z" fill="white"/>
<path d="M26.6844 7.54187L23.1209 13.2883H27.4584L26.6844 7.54187ZM27.8901 3.52567H29.3567L31.1832 17.385C31.2399 17.8192 31.3691 18.1223 31.5782 18.2857C31.8726 18.5091 32.2676 18.6409 32.748 18.6409H33.2275L32.9738 19.6055H25.8378L26.0716 18.6409H26.6078C27.16 18.6409 27.5191 18.573 27.7329 18.4175C27.93 18.2738 28.0393 18.0426 28.0393 17.7513C28.0393 17.64 28.0186 17.5319 27.9907 17.385L27.6156 14.5126H22.3788L21.3303 16.1765C21.0446 16.6628 20.9074 17.0977 20.9074 17.4845C20.9074 17.8476 21.0199 18.1302 21.2337 18.3299C21.4595 18.5256 21.8106 18.6409 22.2862 18.6409H22.7091L22.4713 19.6055H16.9121L17.1698 18.6409C17.6382 18.5967 18.0212 18.4933 18.2909 18.2857C18.8351 17.891 19.2429 17.4569 19.5126 17.014L27.8901 3.52567Z" fill="white"/>
<path d="M38.2785 3.52567H42.9393L48.1793 14.7202L50.0146 6.84409C50.1071 6.50073 50.151 6.22208 50.151 6.02633C50.151 5.56377 49.9819 5.18883 49.6994 4.92124C49.401 4.64655 49.002 4.49894 48.5105 4.49894H48.0708L48.3166 3.52567H53.6667L53.3962 4.49894C52.8441 4.51867 52.4124 4.68207 52.1267 4.96939C51.7118 5.38854 51.4213 5.9545 51.2522 6.65623L48.232 19.6055H47.0223L40.9915 6.84804L38.6129 15.7093C38.5004 16.1316 38.4437 16.4631 38.4437 16.7504C38.4437 17.3045 38.6416 17.7513 38.9959 18.0947C39.3709 18.4372 39.9031 18.6133 40.5965 18.6409L40.3707 19.6055H34.3926L34.6304 18.6409C35.303 18.5967 35.8879 18.397 36.3148 18.0023C36.7505 17.5997 37.0569 17.0851 37.2348 16.3991L40.0324 6.02633C40.0922 5.76347 40.1289 5.56772 40.1289 5.44379C40.1289 5.15647 40.0164 4.92519 39.7786 4.73811C39.5401 4.58261 39.1291 4.49894 38.5482 4.49894H38L38.2785 3.52567Z" fill="white"/>
<path d="M56.3551 3.52567H63.6076L63.3171 4.49894H62.4953C62.1202 4.49894 61.8537 4.58261 61.6646 4.73811C61.4747 4.92519 61.3215 5.22435 61.201 5.65928L59.5724 12.0404L65.8051 6.41705C66.2607 6.0058 66.4778 5.63165 66.4778 5.31276C66.4778 5.06885 66.3812 4.87783 66.2041 4.72627C66.0142 4.58261 65.7165 4.49894 65.3216 4.49894H64.9218L65.1715 3.52567H71.1465L70.9047 4.49894C70.2632 4.5392 69.7198 4.68207 69.2634 4.88572C68.8165 5.117 68.2643 5.54009 67.6348 6.14157L63.531 9.84282L67.0946 17.6116C67.2119 17.891 67.3491 18.082 67.4983 18.2099C67.6475 18.3409 67.8733 18.4451 68.163 18.5485C68.3409 18.5967 68.6872 18.6409 69.2155 18.6409L68.9697 19.6055H61.6925L61.963 18.6409H62.9062C63.2613 18.6409 63.515 18.573 63.6563 18.4451C63.8254 18.3299 63.902 18.1665 63.902 17.9944C63.902 17.8429 63.8741 17.6874 63.8055 17.5563L61.221 11.9204L59.1168 13.8274L58.097 17.7395C58.093 17.8271 58.0811 17.9028 58.0811 17.9944C58.0811 18.1981 58.1569 18.3536 58.3221 18.4609C58.4673 18.573 58.7577 18.6409 59.1487 18.6409H60.2658L60.0113 19.6055H52.5977L52.8682 18.6409H53.4929C53.9079 18.6409 54.2223 18.5485 54.4401 18.397C54.6252 18.2296 54.7792 17.9944 54.8598 17.6116L57.9797 5.52825C58.0156 5.41616 58.0364 5.28908 58.0364 5.18094C58.0364 4.9615 57.9518 4.7981 57.7938 4.66234C57.6294 4.56288 57.3629 4.49894 56.9759 4.49894H56.1253L56.3551 3.52567Z" fill="white"/>
<path d="M106.621 18.5801C107.391 18.5801 108.153 18.3851 108.854 17.9944C109.568 17.5832 110.184 16.9935 110.717 16.2192C111.249 15.4653 111.709 14.3768 112.119 12.9331C112.514 11.5012 112.724 10.138 112.724 8.80957C112.724 7.41716 112.402 6.3326 111.769 5.55903C111.2 4.87704 110.33 4.53446 109.173 4.53446C108.64 4.53446 108.286 4.59366 108.1 4.72154C107.931 4.82968 107.782 5.05622 107.693 5.34749L104.537 17.5989C104.508 17.711 104.508 17.8144 104.508 17.9021C104.508 18.1294 104.573 18.2857 104.674 18.3851C104.843 18.5249 105.081 18.5801 105.387 18.5801H106.621ZM102.392 3.52489H109.729C111.825 3.52489 113.434 4.08374 114.547 5.22435C115.647 6.36101 116.216 7.96023 116.216 9.9778C116.216 11.2976 115.962 12.5945 115.482 13.8701C114.978 15.1504 114.382 16.1836 113.62 16.9848C112.873 17.7592 111.902 18.4049 110.733 18.8911C109.552 19.3702 108.222 19.6055 106.761 19.6055H99.0293L99.2958 18.6401H100.15C100.742 18.6401 101.114 18.2857 101.287 17.5713L104.403 5.4359C104.436 5.34749 104.452 5.25987 104.452 5.15252C104.452 4.94492 104.367 4.79337 104.21 4.66155C104.057 4.56209 103.747 4.49815 103.295 4.49815H102.073L102.392 3.52489Z" fill="white"/>
<path d="M121.154 3.52567H128.418L128.112 4.49894H127.302C126.919 4.49894 126.648 4.58261 126.459 4.73811C126.266 4.92519 126.129 5.22435 126.015 5.65928L124.383 12.0404L130.608 6.41705C131.055 6.0058 131.293 5.63165 131.293 5.31276C131.293 5.06885 131.192 4.87783 131.003 4.72627C130.797 4.58261 130.527 4.49894 130.148 4.49894H129.72L129.97 3.52567H135.966L135.691 4.49894C135.062 4.5392 134.513 4.68207 134.075 4.88572C133.623 5.117 133.071 5.54009 132.421 6.14157L128.325 9.84282L131.914 17.6116C132.01 17.891 132.152 18.082 132.285 18.2099C132.429 18.3409 132.667 18.4451 132.954 18.5485C133.147 18.5967 133.498 18.6409 134.018 18.6409L133.764 19.6055H126.499L126.773 18.6409H127.697C128.06 18.6409 128.306 18.573 128.463 18.4451C128.624 18.3299 128.689 18.1665 128.689 17.9944C128.689 17.8429 128.669 17.6874 128.588 17.5563L126.023 11.9204L123.915 13.8274L122.915 17.7395C122.879 17.8271 122.879 17.9028 122.879 17.9944C122.879 18.1981 122.964 18.3536 123.117 18.4609C123.271 18.573 123.564 18.6409 123.951 18.6409H125.052L124.802 19.6055H117.412L117.671 18.6409H118.295C118.722 18.6409 119.029 18.5485 119.239 18.397C119.432 18.2296 119.59 17.9944 119.674 17.6116L122.778 5.52825C122.818 5.41616 122.839 5.28908 122.839 5.18094C122.839 4.9615 122.766 4.7981 122.581 4.66234C122.444 4.56288 122.153 4.49894 121.77 4.49894H120.912L121.154 3.52567Z" fill="white"/>
<path d="M138.365 3.52567H146L145.751 4.49894H144.872C144.432 4.49894 144.146 4.56288 143.981 4.68207C143.804 4.80994 143.662 5.02938 143.59 5.31276L140.429 17.5997C140.408 17.7355 140.393 17.8476 140.393 17.9344C140.393 18.1578 140.449 18.3251 140.586 18.4175C140.8 18.573 141.095 18.6409 141.49 18.6409H142.635L142.36 19.6055H134.922L135.176 18.6409H136.01C136.623 18.6409 136.986 18.3536 137.111 17.7915L140.272 5.56377C140.321 5.41616 140.321 5.2725 140.321 5.15331C140.321 4.94571 140.252 4.79416 140.103 4.66234C139.945 4.54235 139.708 4.49894 139.353 4.49894H138.139L138.365 3.52567Z" fill="white"/>
</svg>
